<svg class="MultiColorIcon--unselected MultiColorIcon MultiColorIcon RocketMultiColorIcon IconPickerCell-icon MultiColorIcon--medium" viewBox="0 0 24 24" title="rocket" services="[object Object]"><path style="fill: #1e1f21bf" d="M7 21H0V17L7 14V21ZM8.5 5C9.3 3.2 10.5 1.5 12 0C13.5 1.5 14.6 3.2 15.5 5H8.5ZM16 21V23H8V21H16ZM17 21V14L24 17V21H17ZM12 13C13.1046 13 14 12.1046 14 11C14 9.89543 13.1046 9 12 9C10.8954 9 10 9.89543 10 11C10 12.1046 10.8954 13 12 13Z"></path><path style="fill: #fff" d="M15 23V24H9V23H15ZM8.5 5H15.5C16.5 7.2 17 9.6 17 12.1V21H7V12.1C7 9.6 7.5 7.2 8.5 5ZM12 13C13.1 13 14 12.1 14 11C14 9.9 13.1 9 12 9C10.9 9 10 9.9 10 11C10 12.1 10.9 13 12 13Z"></path></svg>