<svg class="MultiColorIcon--unselected MultiColorIcon MultiColorIcon PeopleMultiColorIcon IconPickerCell-icon MultiColorIcon--medium" viewBox="0 0 24 24" title="people" services="[object Object]"><path style="fill: #1e1f21bf" d="M9,8.5C9,10.4,7.4,12,5.5,12S2,10.4,2,8.5S3.6,5,5.5,5S9,6.6,9,8.5z M11,18.5c0-3-2.5-5.5-5.5-5.5l0,0  c-3,0-5.5,2.5-5.5,5.5V19h11V18.5z"></path><path style="fill: #fff" d="M22,8.5c0,1.9-1.6,3.5-3.5,3.5S15,10.4,15,8.5S16.6,5,18.5,5S22,6.6,22,8.5z M24,18.5c0-3-2.5-5.5-5.5-5.5l0,0  c-3,0-5.5,2.5-5.5,5.5V19h11V18.5z"></path></svg>