<svg width="204" height="80" viewBox="0 0 204 80" fill="none" xmlns="http://www.w3.org/2000/svg">
<rect x="29" y="38" width="18" height="7" rx="3.5" fill="#E8ECEE"/>
<rect x="121" y="25" width="24" height="7" rx="3.5" fill="#E8ECEE"/>
<rect x="121" y="38" width="15" height="7" rx="3.5" fill="#E8ECEE"/>
<rect x="121" y="51" width="20" height="7" rx="3.5" fill="#E8ECEE"/>
<rect x="108" y="25" width="7" height="7" rx="2" fill="#FB5779"/>
<rect x="108" y="38" width="7" height="7" rx="2" fill="#FFD100"/>
<rect x="108" y="51" width="7" height="7" rx="2" fill="#19DB7E"/>
<path d="M56.5404 26.7459C52.336 21.6374 46.0615 18.2969 39 18.0076V4C50.6266 4.30029 60.9538 9.82277 67.723 18.3087L56.5404 26.7459Z" fill="#FB5779"/>
<path d="M36.9998 4C16.4753 4.53031 0 21.3347 0 41.9871C0 62.9739 17.0132 79.9871 38 79.9871C46.8228 79.9871 54.9434 76.9803 61.3928 71.9354L52.4826 61.1265C48.4574 64.1771 43.4401 65.9871 38 65.9871C24.7452 65.9871 14 55.2419 14 41.9871C14 29.0673 24.2088 18.5319 36.9998 18.0076V4Z" fill="#19DB7E"/>
<path d="M54.0254 59.8534C58.9208 55.4596 62.0003 49.0829 62.0003 41.987C62.0003 36.9179 60.4288 32.2159 57.7463 28.3415L68.9289 19.9043C73.3805 26.128 76.0003 33.7516 76.0003 41.987C76.0003 53.4322 70.9405 63.6956 62.9356 70.6623L54.0254 59.8534Z" fill="#FFD100"/>
</svg>
