<svg class="MultiColorIcon--unselected MultiColorIcon MultiColorIcon StarMultiColorIcon IconPickerCell-icon MultiColorIcon--medium" viewBox="0 0 24 24" title="star" services="[object Object]"><path style="fill: #1e1f21bf" d="M16.4064 13.7455L17.4209 19.6364L12.13 16.8546L6.83913 19.6364L7.84277 13.7455L3.56641 9.5673L9.47913 8.71639L12.13 3.34912L14.77 8.71639L20.6828 9.5673L16.4064 13.7455Z"></path><path style="fill: #fff" d="M12 0C9.62663 0 7.30655 0.703787 5.33316 2.02236C3.35977 3.34094 1.8217 5.21508 0.913451 7.4078C0.00519945 9.60051 -0.232441 12.0133 0.230582 14.3411C0.693604 16.6688 1.83649 18.807 3.51472 20.4853C5.19295 22.1635 7.33115 23.3064 9.65892 23.7694C11.9867 24.2324 14.3995 23.9948 16.5922 23.0865C18.7849 22.1783 20.6591 20.6402 21.9776 18.6668C23.2962 16.6934 24 14.3734 24 12C24 8.8174 22.7357 5.76515 20.4853 3.51472C18.2348 1.26428 15.1826 0 12 0ZM17.4545 19.6364L12.1636 16.8545L6.84 19.6364L7.84364 13.7455L3.56728 9.56727L9.48 8.72727L12.1309 3.36L14.7709 8.72727L20.7273 9.56727L16.3636 13.7455L17.4545 19.6364Z"></path></svg>