<svg width="50" height="50" viewBox="0 0 50 50" fill="none" xmlns="http://www.w3.org/2000/svg">
<g clip-path="url(#clip0)">
<path d="M2.08984 7.67H32.0898C32.6203 7.67 33.129 7.88071 33.5041 8.25578C33.8791 8.63086 34.0898 9.13957 34.0898 9.67V15.67C34.0898 15.9326 34.0381 16.1927 33.9376 16.4354C33.8371 16.678 33.6898 16.8985 33.5041 17.0842C33.3183 17.2699 33.0979 17.4172 32.8552 17.5178C32.6126 17.6183 32.3525 17.67 32.0898 17.67H2.08984C1.55941 17.67 1.0507 17.4593 0.67563 17.0842C0.300557 16.7091 0.0898438 16.2004 0.0898438 15.67V9.67C0.0898438 9.13957 0.300557 8.63086 0.67563 8.25578C1.0507 7.88071 1.55941 7.67 2.08984 7.67V7.67ZM8.08984 22.67V28.67C8.08984 29.2004 8.30056 29.7091 8.67563 30.0842C9.0507 30.4593 9.55941 30.67 10.0898 30.67H40.0898C40.6203 30.67 41.129 30.4593 41.5041 30.0842C41.8791 29.7091 42.0898 29.2004 42.0898 28.67V22.67C42.0898 22.1396 41.8791 21.6309 41.5041 21.2558C41.129 20.8807 40.6203 20.67 40.0898 20.67H10.0898C9.8272 20.67 9.56713 20.7217 9.32448 20.8222C9.08183 20.9227 8.86135 21.0701 8.67563 21.2558C8.48991 21.4415 8.34259 21.662 8.24208 21.9046C8.14158 22.1473 8.08984 22.4074 8.08984 22.67ZM16.0898 35.67V41.67C16.0898 42.2004 16.3006 42.7091 16.6756 43.0842C17.0507 43.4593 17.5594 43.67 18.0898 43.67H48.0898C48.6203 43.67 49.129 43.4593 49.5041 43.0842C49.8791 42.7091 50.0898 42.2004 50.0898 41.67V35.67C50.0898 35.1396 49.8791 34.6309 49.5041 34.2558C49.129 33.8807 48.6203 33.67 48.0898 33.67H18.0898C17.5594 33.67 17.0507 33.8807 16.6756 34.2558C16.3006 34.6309 16.0898 35.1396 16.0898 35.67V35.67Z" fill="#00BF9C"/>
</g>
<defs>
<clipPath id="clip0">
<rect width="50" height="50" fill="white"/>
</clipPath>
</defs>
</svg>
