<svg class="MultiColorIcon MultiColorIcon CalendarMultiColorIcon MultiColorIcon--medium" viewBox="0 0 24 24" title="calendar" services="[object Object]">
	<path style="fill: #1e1f21bf" d="M24,5v3H0V5c0-1.1,0.9-2,2-2h2v2c0,0.5,0.5,1,1,1s1-0.5,1-1V3h12v2c0,0.5,0.5,1,1,1s1-0.5,1-1V3h2  C23.1,3,24,3.9,24,5z"></path>
	<path style="fill: #fff" d="M22,23H2c-1.1,0-2-0.9-2-2V8h24v13C24,22.1,23.1,23,22,23z M5,1C4.5,1,4,1.5,4,2v3c0,0.5,0.5,1,1,1s1-0.5,1-1V2  C6,1.5,5.5,1,5,1z M19,1c-0.5,0-1,0.5-1,1v3c0,0.5,0.5,1,1,1s1-0.5,1-1V2C20,1.5,19.5,1,19,1z"></path>
</svg>