<svg width="204" height="80" viewBox="0 0 204 80" fill="none" xmlns="http://www.w3.org/2000/svg">
<rect x="29" y="38" width="18" height="7" rx="3.5" fill="#E8ECEE"/>
<rect x="121" y="19" width="24" height="7" rx="3.5" fill="#E8ECEE"/>
<rect x="121" y="32" width="15" height="7" rx="3.5" fill="#E8ECEE"/>
<rect x="121" y="45" width="20" height="7" rx="3.5" fill="#E8ECEE"/>
<rect x="121" y="58" width="9" height="7" rx="3.5" fill="#E8ECEE"/>
<rect x="108" y="19" width="7" height="7" rx="2" fill="#19DB7E"/>
<rect x="108" y="32" width="7" height="7" rx="2" fill="#48DAFD"/>
<rect x="108" y="45" width="7" height="7" rx="2" fill="#6457F9"/>
<rect x="108" y="58" width="7" height="7" rx="2" fill="#FF93AF"/>
<path fill-rule="evenodd" clip-rule="evenodd" d="M36.9999 4C16.4754 4.53025 0 21.3347 0 41.9871C0 52.2578 4.07468 61.5768 10.6957 68.4158L20.5007 58.4121C16.4693 54.1187 14 48.3413 14 41.9871C14 29.0673 24.2089 18.5318 36.9999 18.0076V4Z" fill="#FF93AF"/>
<path d="M49.9183 62.8238L57.3748 74.6841C51.7017 78.0531 45.0768 79.9875 38.0001 79.9875C28.0034 79.9875 18.9083 76.1273 12.124 69.8162L21.9291 59.8125C26.1835 63.6508 31.8189 65.9875 38.0001 65.9875C42.3378 65.9875 46.4068 64.8367 49.9183 62.8238Z" fill="#6457F9"/>
<path d="M60.0125 32.4095C61.291 35.3436 62 38.5828 62 41.9876C62 50.1887 57.8866 57.429 51.6104 61.7579L59.0668 73.6182C69.2755 66.8054 76 55.1818 76 41.9876C76 36.3896 74.7895 31.0742 72.6159 26.2891L60.0125 32.4095Z" fill="#48DAFD"/>
<path d="M39 4V18.0076C47.7157 18.3647 55.2325 23.37 59.1376 30.6105L71.741 24.4901C65.5552 12.5856 53.2541 4.3682 39 4Z" fill="#19DB7E"/>
</svg>
