<svg width="48" height="48" viewBox="0 0 48 48" fill="none" xmlns="http://www.w3.org/2000/svg">
<g clip-path="url(#clip0)">
<path opacity="0.35" fill-rule="evenodd" clip-rule="evenodd" d="M30 46V48H18V46H30ZM17 10H31C33 14.4 34 19.2 34 24.2V42H14V24.2C14 19.2 15 14.4 17 10ZM24 26C26.2 26 28 24.2 28 22C28 19.8 26.2 18 24 18C21.8 18 20 19.8 20 22C20 24.2 21.8 26 24 26Z" fill="#7A6FF0"/>
<path fill-rule="evenodd" clip-rule="evenodd" d="M14 42H0V34L14 28V42ZM17 10C18.6 6.4 21 3 24 0C27 3 29.2 6.4 31 10H17ZM32 42V46H16V42H32ZM34 42V28L48 34V42H34ZM24 26C26.2091 26 28 24.2091 28 22C28 19.7909 26.2091 18 24 18C21.7909 18 20 19.7909 20 22C20 24.2091 21.7909 26 24 26Z" fill="#7A6FF0"/>
</g>
<defs>
<clipPath id="clip0">
<rect width="48" height="48" fill="white"/>
</clipPath>
</defs>
</svg>
