<?xml version="1.0" encoding="utf-8"?>
<!-- Generator: Adobe Illustrator 24.2.3, SVG Export Plug-In . SVG Version: 6.00 Build 0)  -->
<svg version="1.1" id="Layer_1" xmlns="http://www.w3.org/2000/svg" xmlns:xlink="http://www.w3.org/1999/xlink" x="0px" y="0px"
	 viewBox="0 0 204 80" style="enable-background:new 0 0 204 80;" xml:space="preserve">
<style type="text/css">
	.st0{fill:#E8ECEE;}
	.st1{fill:#00BF9C;}
	.st2{fill:#25E8C8;}
	.st3{fill:#58F5D9;}
	.st4{fill:#B0FFF1;}
	.st5{fill-rule:evenodd;clip-rule:evenodd;fill:#B0FFF1;}
</style>
<path class="st0" d="M32.5,38h11c1.9,0,3.5,1.6,3.5,3.5l0,0c0,1.9-1.6,3.5-3.5,3.5h-11c-1.9,0-3.5-1.6-3.5-3.5l0,0
	C29,39.6,30.6,38,32.5,38z"/>
<path class="st0" d="M124.5,19h17c1.9,0,3.5,1.6,3.5,3.5l0,0c0,1.9-1.6,3.5-3.5,3.5h-17c-1.9,0-3.5-1.6-3.5-3.5l0,0
	C121,20.6,122.6,19,124.5,19z"/>
<path class="st0" d="M124.5,32h8c1.9,0,3.5,1.6,3.5,3.5l0,0c0,1.9-1.6,3.5-3.5,3.5h-8c-1.9,0-3.5-1.6-3.5-3.5l0,0
	C121,33.6,122.6,32,124.5,32z"/>
<path class="st0" d="M124.5,45h13c1.9,0,3.5,1.6,3.5,3.5l0,0c0,1.9-1.6,3.5-3.5,3.5h-13c-1.9,0-3.5-1.6-3.5-3.5l0,0
	C121,46.6,122.6,45,124.5,45z"/>
<path class="st0" d="M124.5,58h2c1.9,0,3.5,1.6,3.5,3.5l0,0c0,1.9-1.6,3.5-3.5,3.5h-2c-1.9,0-3.5-1.6-3.5-3.5l0,0
	C121,59.6,122.6,58,124.5,58z"/>
<path class="st1" d="M110,19h3c1.1,0,2,0.9,2,2v3c0,1.1-0.9,2-2,2h-3c-1.1,0-2-0.9-2-2v-3C108,19.9,108.9,19,110,19z"/>
<path class="st2" d="M110,32h3c1.1,0,2,0.9,2,2v3c0,1.1-0.9,2-2,2h-3c-1.1,0-2-0.9-2-2v-3C108,32.9,108.9,32,110,32z"/>
<path class="st3" d="M110,45h3c1.1,0,2,0.9,2,2v3c0,1.1-0.9,2-2,2h-3c-1.1,0-2-0.9-2-2v-3C108,45.9,108.9,45,110,45z"/>
<path class="st4" d="M110,58h3c1.1,0,2,0.9,2,2v3c0,1.1-0.9,2-2,2h-3c-1.1,0-2-0.9-2-2v-3C108,58.9,108.9,58,110,58z"/>
<path class="st5" d="M37,4C16.5,4.5,0,21.3,0,42c0,10.3,4.1,19.6,10.7,26.4l9.8-10C16.5,54.1,14,48.3,14,42c0-12.9,10.2-23.5,23-24
	V4z"/>
<path class="st3" d="M49.9,62.8l7.5,11.9C51.7,78.1,45.1,80,38,80c-10,0-19.1-3.9-25.9-10.2l9.8-10C26.2,63.7,31.8,66,38,66
	C42.3,66,46.4,64.8,49.9,62.8z"/>
<path class="st2" d="M60,32.4c1.3,2.9,2,6.2,2,9.6c0,8.2-4.1,15.4-10.4,19.8l7.5,11.9C69.3,66.8,76,55.2,76,42
	c0-5.6-1.2-10.9-3.4-15.7L60,32.4z"/>
<path class="st1" d="M39,4v14c8.7,0.4,16.2,5.4,20.1,12.6l12.6-6.1C65.6,12.6,53.3,4.4,39,4z"/>
</svg>
