<svg width="50" height="50" viewBox="0 0 50 50" fill="none" xmlns="http://www.w3.org/2000/svg">
<path d="M45.0898 10V18H7.08984V10C7.08984 9.20435 7.40591 8.44129 7.96852 7.87868C8.53113 7.31607 9.29419 7 10.0898 7H12.0898V12.5C12.0898 13.163 12.3532 13.7989 12.8221 14.2678C13.2909 14.7366 13.9268 15 14.5898 15C15.2529 15 15.8888 14.7366 16.3576 14.2678C16.8265 13.7989 17.0898 13.163 17.0898 12.5V7H35.0898V12.5C35.0898 13.163 35.3532 13.7989 35.8221 14.2678C36.2909 14.7366 36.9268 15 37.5898 15C38.2529 15 38.8888 14.7366 39.3576 14.2678C39.8264 13.7989 40.0898 13.163 40.0898 12.5V7H42.0898C42.8855 7 43.6486 7.31607 44.2112 7.87868C44.7738 8.44129 45.0898 9.20435 45.0898 10Z" fill="#FF727F"/>
<path d="M45.0898 18V44C45.0898 44.7957 44.7738 45.5587 44.2112 46.1213C43.6486 46.6839 42.8855 47 42.0898 47H10.0898C9.29419 47 8.53113 46.6839 7.96852 46.1213C7.40591 45.5587 7.08984 44.7957 7.08984 44V18H45.0898ZM16.3598 3.73C16.0102 3.37947 15.5643 3.14065 15.0788 3.04381C14.5933 2.94698 14.0899 2.99649 13.6325 3.18608C13.1752 3.37567 12.7844 3.69679 12.5097 4.10874C12.2351 4.52068 12.089 5.0049 12.0898 5.5V12.5C12.0898 13.163 12.3532 13.7989 12.8221 14.2678C13.2909 14.7366 13.9268 15 14.5898 15C15.2529 15 15.8888 14.7366 16.3576 14.2678C16.8265 13.7989 17.0898 13.163 17.0898 12.5V5.5C17.0904 5.17148 17.0263 4.84606 16.901 4.54235C16.7757 4.23864 16.5919 3.9626 16.3598 3.73V3.73ZM39.3598 3.73C39.0102 3.37947 38.5643 3.14065 38.0788 3.04381C37.5933 2.94698 37.0899 2.99649 36.6325 3.18608C36.1752 3.37567 35.7844 3.69679 35.5097 4.10874C35.2351 4.52068 35.089 5.0049 35.0898 5.5V12.5C35.0898 13.163 35.3532 13.7989 35.8221 14.2678C36.2909 14.7366 36.9268 15 37.5898 15C38.2529 15 38.8888 14.7366 39.3576 14.2678C39.8264 13.7989 40.0898 13.163 40.0898 12.5V5.5C40.0904 5.17148 40.0263 4.84606 39.901 4.54235C39.7757 4.23864 39.5919 3.9626 39.3598 3.73V3.73Z" fill="#FFC7DB"/>
</svg>
