<svg
	class="MultiColorIcon--unselected MultiColorIcon MultiColorIcon TimelineMultiColorIcon IconPickerCell-icon MultiColorIcon--medium"
	viewBox="0 0 24 24"
	title="timeline"
	services="[object Object]"
>
	<path class="MultiColorIcon-path--fadedBlack" d="M5,9h14c0.6,0,1,0.4,1,1v4c0,0.6-0.4,1-1,1H5c-0.6,0-1-0.4-1-1v-4C4,9.4,4.4,9,5,9z"></path>
	<path
		class="MultiColorIcon-path--white"
		d="M1,0h14c0.6,0,1,0.4,1,1v4c0,0.6-0.4,1-1,1H1C0.4,6,0,5.6,0,5V1C0,0.4,0.4,0,1,0z M9,18h14c0.6,0,1,0.4,1,1v4 c0,0.6-0.4,1-1,1H9c-0.6,0-1-0.4-1-1v-4C8,18.4,8.4,18,9,18z"
	></path>
</svg>
