<svg width="48" height="48" viewBox="0 0 48 48" fill="none" xmlns="http://www.w3.org/2000/svg">
<path d="M47.1274 43.6363C47.1274 44.16 46.7783 44.5091 46.2547 44.5091H43.6365V47.1273C43.6365 47.6509 43.2874 48 42.7638 48C42.2401 48 41.891 47.6509 41.891 47.1273V44.5091H39.2729C38.7492 44.5091 38.4001 44.16 38.4001 43.6363C38.4001 43.1127 38.7492 42.7636 39.2729 42.7636H41.891V40.1454C41.891 39.6218 42.2401 39.2727 42.7638 39.2727C43.2874 39.2727 43.6365 39.6218 43.6365 40.1454V42.7636H46.2547C46.7783 42.7636 47.1274 43.1127 47.1274 43.6363ZM34.9965 44.5091H12.2183C7.85468 44.5091 4.36377 41.0182 4.36377 36.6545V10.4727C4.36377 6.10907 7.85468 2.61816 12.2183 2.61816H26.2692C27.9274 2.61816 29.4983 3.1418 30.8074 4.01453L40.3201 10.7345C42.4147 12.2182 43.6365 14.5745 43.6365 17.1927V35.8691C43.3747 35.8691 43.0256 35.7818 42.7638 35.7818C38.4001 35.7818 34.9092 39.2727 34.9092 43.6363C34.9092 43.8982 34.9092 44.2473 34.9965 44.5091ZM26.182 22.2545C26.182 22.9527 26.7929 23.5636 27.491 23.5636H34.4729C35.171 23.5636 35.782 22.9527 35.782 22.2545V19.6363C35.782 18.9382 35.171 18.3273 34.4729 18.3273H27.491C26.7929 18.3273 26.182 18.9382 26.182 19.6363V22.2545ZM21.8183 29.2363C21.8183 28.5382 21.2074 27.9273 20.5092 27.9273H13.5274C12.8292 27.9273 12.2183 28.5382 12.2183 29.2363V31.8545C12.2183 32.5527 12.8292 33.1636 13.5274 33.1636H20.5092C21.2074 33.1636 21.8183 32.5527 21.8183 31.8545V29.2363ZM21.8183 19.6363C21.8183 18.9382 21.2074 18.3273 20.5092 18.3273H13.5274C12.8292 18.3273 12.2183 18.9382 12.2183 19.6363V22.2545C12.2183 22.9527 12.8292 23.5636 13.5274 23.5636H20.5092C21.2074 23.5636 21.8183 22.9527 21.8183 22.2545V19.6363ZM34.4729 33.1636C35.171 33.1636 35.782 32.5527 35.782 31.8545V29.2363C35.782 28.5382 35.171 27.9273 34.4729 27.9273H27.491C26.7929 27.9273 26.182 28.5382 26.182 29.2363V31.8545C26.182 32.5527 26.7929 33.1636 27.491 33.1636H34.4729Z" fill="#00BF9C"/>
</svg>
