<svg width="40" height="40" viewBox="0 0 40 40" fill="none" xmlns="http://www.w3.org/2000/svg">
<mask id="mask0" style="mask-type:alpha" maskUnits="userSpaceOnUse" x="15" y="6" width="25" height="27">
<path d="M34.1592 13.3646C34.1592 16.9524 31.2507 19.861 27.6628 19.861C24.0749 19.861 21.1664 16.9524 21.1664 13.3646C21.1664 9.77671 24.0749 6.86816 27.6628 6.86816C31.2507 6.86816 34.1592 9.77671 34.1592 13.3646Z" fill="#5B073A"/>
<path d="M15.0872 32.8538C15.0872 26.3364 20.3706 21.053 26.888 21.053H28.1992C34.7166 21.053 40 26.3364 40 32.8538H15.0872Z" fill="#5B073A"/>
</mask>
<g mask="url(#mask0)">
<path d="M34.1592 13.3646C34.1592 16.9524 31.2507 19.861 27.6628 19.861C24.0749 19.861 21.1664 16.9524 21.1664 13.3646C21.1664 9.77671 24.0749 6.86816 27.6628 6.86816C31.2507 6.86816 34.1592 9.77671 34.1592 13.3646Z" fill="#575192"/>
<path d="M15.0872 32.8538C15.0872 26.3364 20.3706 21.053 26.888 21.053H28.1992C34.7166 21.053 40 26.3364 40 32.8538H15.0872Z" fill="#575192"/>
</g>
<path d="M19.072 13.3646C19.072 16.9524 16.1635 19.861 12.5756 19.861C8.98776 19.861 6.07921 16.9524 6.07921 13.3646C6.07921 9.77671 8.98776 6.86816 12.5756 6.86816C16.1635 6.86816 19.072 9.77671 19.072 13.3646Z" fill="#938CE1"/>
<path d="M0 32.8538C0 26.3364 5.28341 21.053 11.8008 21.053H13.112C19.6294 21.053 24.9129 26.3364 24.9129 32.8538H0Z" fill="#938CE1"/>
</svg>
