<?xml version="1.0" encoding="utf-8"?>
<!-- Generator: Adobe Illustrator 24.2.3, SVG Export Plug-In . SVG Version: 6.00 Build 0)  -->
<svg version="1.1" id="Layer_1" xmlns="http://www.w3.org/2000/svg" xmlns:xlink="http://www.w3.org/1999/xlink" x="0px" y="0px"
	 viewBox="0 0 204 80" style="enable-background:new 0 0 204 80;" xml:space="preserve">
<style type="text/css">
	.st0{fill:#FFFFFF;stroke:#E8ECEE;}
	.st1{fill:#14AAF5;}
</style>
<path class="st0" d="M8,4.5h61c4.1,0,7.5,3.4,7.5,7.5v60c0,4.1-3.4,7.5-7.5,7.5H8c-4.1,0-7.5-3.4-7.5-7.5V12C0.5,7.9,3.9,4.5,8,4.5z
	"/>
<path class="st1" d="M28.5,59h21c1.9,0,3.5,1.6,3.5,3.5l0,0c0,1.9-1.6,3.5-3.5,3.5h-21c-1.9,0-3.5-1.6-3.5-3.5l0,0
	C25,60.6,26.6,59,28.5,59z"/>
<path d="M19.7,49h2.7V26.5h-2.8l-6,4.3v3l6-4.3h0.1V49z M33.1,38.6h2.8c3.2,0,5.2,1.6,5.2,4.3c0,2.4-2.1,4-5.1,4c-3,0-5-1.6-5.2-3.9
	h-2.7c0.2,3.7,3.2,6.3,7.9,6.3c4.4,0,8-2.7,8-6.6c0-3.2-2.2-5.3-5.6-5.5v-0.1c2.8-0.5,4.6-2.5,4.6-5.4c0-3.4-3-5.8-7.1-5.8
	c-4.2,0-7.1,2.5-7.4,6.3h2.7c0.2-2.4,2-3.8,4.6-3.8c2.9,0,4.4,1.5,4.4,3.7c0,2.3-1.8,4-4.4,4h-2.7V38.6z M52.4,38.6h2.8
	c3.2,0,5.2,1.6,5.2,4.3c0,2.4-2.1,4-5.1,4c-3,0-5-1.6-5.2-3.9h-2.7c0.2,3.7,3.2,6.3,7.9,6.3c4.4,0,8-2.7,8-6.6
	c0-3.2-2.2-5.3-5.6-5.5v-0.1c2.8-0.5,4.6-2.5,4.6-5.4c0-3.4-3-5.8-7.1-5.8c-4.2,0-7.1,2.5-7.4,6.3h2.7c0.2-2.4,2-3.8,4.6-3.8
	c2.9,0,4.4,1.5,4.4,3.7c0,2.3-1.8,4-4.4,4h-2.7V38.6z"/>
</svg>
