<svg width="320" height="160" viewBox="0 0 320 160" fill="none" xmlns="http://www.w3.org/2000/svg">
<rect width="320" height="160" fill="#1E1F21"/>
<rect x="16" y="62" width="237" height="8" rx="4" fill="#424244"/>
<rect x="32" y="48" width="32" height="8" rx="4" fill="#424244"/>
<rect x="278" y="62" width="32" height="8" rx="4" fill="#424244"/>
<path d="M22 47.5C24.5 47.5 26.5 49.5 26.5 52C26.5 54.5 24.5 56.5 22 56.5C19.5 56.5 17.5 54.5 17.5 52C17.5 49.5 19.5 47.5 22 47.5ZM22 46.5C18.95 46.5 16.5 48.95 16.5 52C16.5 55.05 18.95 57.5 22 57.5C25.05 57.5 27.5 55.05 27.5 52C27.5 48.95 25.05 46.5 22 46.5ZM21.6 54.1L24.6 51.1C24.8 50.9 24.8 50.6 24.6 50.4C24.4 50.2 24.1 50.2 23.9 50.4L21.25 53.05L20.1 51.9C19.9 51.7 19.6 51.7 19.4 51.9C19.2 52.1 19.2 52.4 19.4 52.6L20.9 54.1C21 54.2 21.15 54.25 21.25 54.25C21.35 54.25 21.5 54.2 21.6 54.1Z" fill="#A2A0A2"/>
<rect x="16" y="98" width="237" height="8" rx="4" fill="#424244"/>
<rect x="32" y="84" width="32" height="8" rx="4" fill="#424244"/>
<rect x="278" y="98" width="32" height="8" rx="4" fill="#424244"/>
<g clip-path="url(#clip0_127_5558)">
<path d="M27.7004 90.4L23.4004 83.8C23.1004 83.3 22.5504 83.05 22.0004 83.05C21.4504 83.05 20.9004 83.35 20.6004 83.8L16.3004 90.4C15.9504 90.9 15.9504 91.6 16.2504 92.1C16.5004 92.65 17.0504 93 17.7004 93H26.3504C26.9504 93 27.5504 92.65 27.8504 92.1C28.1004 91.55 28.0504 90.9 27.7004 90.4ZM26.9004 91.65C26.8004 91.85 26.5504 92 26.3004 92H17.7004C17.4504 92 17.2004 91.85 17.1004 91.65C17.0004 91.45 17.0004 91.15 17.1504 90.95L21.4504 84.35C21.6004 84.15 21.8004 84.05 22.0004 84.05C22.2504 84.05 22.4504 84.15 22.5504 84.35L26.8504 90.95C27.0504 91.15 27.0504 91.4 26.9004 91.65Z" fill="#A2A0A2"/>
</g>
<rect x="16" y="134" width="237" height="8" rx="4" fill="#424244"/>
<rect x="32" y="120" width="32" height="8" rx="4" fill="#424244"/>
<rect x="278" y="134" width="32" height="8" rx="4" fill="#424244"/>
<g clip-path="url(#clip1_127_5558)">
<path d="M18.1 130.05C18 130.05 17.95 130.05 17.85 130C17.7 129.9 17.6 129.75 17.6 129.55V126.95C16.55 126.05 16 124.85 16 123.5C16 121 18 119 20.5 119H23.5C26 119 28 121 28 123.5C28 126 26 128 23.5 128H21.45L18.3 129.95C18.25 130 18.15 130.05 18.1 130.05ZM20.5 120C18.55 120 17 121.55 17 123.5C17 124.6 17.5 125.6 18.4 126.3C18.5 126.4 18.6 126.5 18.6 126.7V128.65L21.1 127.1C21.2 127.05 21.25 127 21.35 127H23.5C25.45 127 27 125.45 27 123.5C27 121.55 25.45 120 23.5 120H20.5V120Z" fill="#A2A0A2"/>
</g>
<defs>
<clipPath id="clip0_127_5558">
<rect width="12" height="12" fill="white" transform="translate(16 82)"/>
</clipPath>
<clipPath id="clip1_127_5558">
<rect width="12" height="12" fill="white" transform="translate(16 118)"/>
</clipPath>
</defs>
</svg>
