<svg width="50" height="50" viewBox="0 0 50 50" fill="none" xmlns="http://www.w3.org/2000/svg">
<g clip-path="url(#clip0)">
<path d="M2 0H12.66C13.1904 0 13.6991 0.210714 14.0742 0.585786C14.4493 0.960859 14.66 1.46957 14.66 2V10.81C14.66 11.3404 14.4493 11.8491 14.0742 12.2242C13.6991 12.5993 13.1904 12.81 12.66 12.81H2C1.46957 12.81 0.960859 12.5993 0.585786 12.2242C0.210714 11.8491 0 11.3404 0 10.81V2C0 1.46957 0.210714 0.960859 0.585786 0.585786C0.960859 0.210714 1.46957 0 2 0V0ZM0 18V40C0 40.5304 0.210714 41.0391 0.585786 41.4142C0.960859 41.7893 1.46957 42 2 42H12.66C13.1904 42 13.6991 41.7893 14.0742 41.4142C14.4493 41.0391 14.66 40.5304 14.66 40V18C14.66 17.4696 14.4493 16.9609 14.0742 16.5858C13.6991 16.2107 13.1904 16 12.66 16H2C1.46957 16 0.960859 16.2107 0.585786 16.5858C0.210714 16.9609 0 17.4696 0 18H0ZM17.67 2V10.81C17.67 11.3404 17.8807 11.8491 18.2558 12.2242C18.6309 12.5993 19.1396 12.81 19.67 12.81H30.33C30.8604 12.81 31.3691 12.5993 31.7442 12.2242C32.1193 11.8491 32.33 11.3404 32.33 10.81V2C32.33 1.46957 32.1193 0.960859 31.7442 0.585786C31.3691 0.210714 30.8604 0 30.33 0L19.67 0C19.1396 0 18.6309 0.210714 18.2558 0.585786C17.8807 0.960859 17.67 1.46957 17.67 2V2ZM17.67 18V48C17.67 48.5304 17.8807 49.0391 18.2558 49.4142C18.6309 49.7893 19.1396 50 19.67 50H30.33C30.8604 50 31.3691 49.7893 31.7442 49.4142C32.1193 49.0391 32.33 48.5304 32.33 48V18C32.33 17.4696 32.1193 16.9609 31.7442 16.5858C31.3691 16.2107 30.8604 16 30.33 16H19.67C19.1396 16 18.6309 16.2107 18.2558 16.5858C17.8807 16.9609 17.67 17.4696 17.67 18ZM35.34 2V10.81C35.34 11.3404 35.5507 11.8491 35.9258 12.2242C36.3009 12.5993 36.8096 12.81 37.34 12.81H48C48.5304 12.81 49.0391 12.5993 49.4142 12.2242C49.7893 11.8491 50 11.3404 50 10.81V2C50 1.46957 49.7893 0.960859 49.4142 0.585786C49.0391 0.210714 48.5304 0 48 0L37.34 0C36.8096 0 36.3009 0.210714 35.9258 0.585786C35.5507 0.960859 35.34 1.46957 35.34 2V2ZM35.34 18V31C35.34 31.5304 35.5507 32.0391 35.9258 32.4142C36.3009 32.7893 36.8096 33 37.34 33H48C48.5304 33 49.0391 32.7893 49.4142 32.4142C49.7893 32.0391 50 31.5304 50 31V18C50 17.4696 49.7893 16.9609 49.4142 16.5858C49.0391 16.2107 48.5304 16 48 16H37.34C36.8096 16 36.3009 16.2107 35.9258 16.5858C35.5507 16.9609 35.34 17.4696 35.34 18Z" fill="#14AAF5"/>
</g>
<defs>
<clipPath id="clip0">
<rect width="50" height="50" fill="white"/>
</clipPath>
</defs>
</svg>
